<?xml version='1.0' encoding='UTF-8'?>
<svg width="66mm" height="66mm" version="1.1" viewBox="0 0 66 66" xmlns="http://www.w3.org/2000/svg"><path d="M8,8H10V10H8zM10,8H12V10H10zM12,8H14V10H12zM14,8H16V10H14zM16,8H18V10H16zM18,8H20V10H18zM20,8H22V10H20zM24,8H26V10H24zM26,8H28V10H26zM28,8H30V10H28zM30,8H32V10H30zM36,8H38V10H36zM38,8H40V10H38zM40,8H42V10H40zM44,8H46V10H44zM46,8H48V10H46zM48,8H50V10H48zM50,8H52V10H50zM52,8H54V10H52zM54,8H56V10H54zM56,8H58V10H56zM8,10H10V12H8zM20,10H22V12H20zM28,10H30V12H28zM30,10H32V12H30zM32,10H34V12H32zM34,10H36V12H34zM36,10H38V12H36zM40,10H42V12H40zM44,10H46V12H44zM56,10H58V12H56zM8,12H10V14H8zM12,12H14V14H12zM14,12H16V14H14zM16,12H18V14H16zM20,12H22V14H20zM38,12H40V14H38zM40,12H42V14H40zM44,12H46V14H44zM48,12H50V14H48zM50,12H52V14H50zM52,12H54V14H52zM56,12H58V14H56zM8,14H10V16H8zM12,14H14V16H12zM14,14H16V16H14zM16,14H18V16H16zM20,14H22V16H20zM24,14H26V16H24zM26,14H28V16H26zM32,14H34V16H32zM38,14H40V16H38zM40,14H42V16H40zM44,14H46V16H44zM48,14H50V16H48zM50,14H52V16H50zM52,14H54V16H52zM56,14H58V16H56zM8,16H10V18H8zM12,16H14V18H12zM14,16H16V18H14zM16,16H18V18H16zM20,16H22V18H20zM24,16H26V18H24zM26,16H28V18H26zM32,16H34V18H32zM34,16H36V18H34zM36,16H38V18H36zM38,16H40V18H38zM44,16H46V18H44zM48,16H50V18H48zM50,16H52V18H50zM52,16H54V18H52zM56,16H58V18H56zM8,18H10V20H8zM20,18H22V20H20zM24,18H26V20H24zM28,18H30V20H28zM30,18H32V20H30zM32,18H34V20H32zM34,18H36V20H34zM36,18H38V20H36zM38,18H40V20H38zM44,18H46V20H44zM56,18H58V20H56zM8,20H10V22H8zM10,20H12V22H10zM12,20H14V22H12zM14,20H16V22H14zM16,20H18V22H16zM18,20H20V22H18zM20,20H22V22H20zM24,20H26V22H24zM28,20H30V22H28zM32,20H34V22H32zM36,20H38V22H36zM40,20H42V22H40zM44,20H46V22H44zM46,20H48V22H46zM48,20H50V22H48zM50,20H52V22H50zM52,20H54V22H52zM54,20H56V22H54zM56,20H58V22H56zM24,22H26V24H24zM26,22H28V24H26zM30,22H32V24H30zM32,22H34V24H32zM38,22H40V24H38zM8,24H10V26H8zM16,24H18V26H16zM20,24H22V26H20zM22,24H24V26H22zM24,24H26V26H24zM28,24H30V26H28zM32,24H34V26H32zM34,24H36V26H34zM36,24H38V26H36zM38,24H40V26H38zM42,24H44V26H42zM44,24H46V26H44zM46,24H48V26H46zM48,24H50V26H48zM50,24H52V26H50zM56,24H58V26H56zM10,26H12V28H10zM12,26H14V28H12zM14,26H16V28H14zM16,26H18V28H16zM22,26H24V28H22zM34,26H36V28H34zM36,26H38V28H36zM42,26H44V28H42zM44,26H46V28H44zM48,26H50V28H48zM50,26H52V28H50zM54,26H56V28H54zM8,28H10V30H8zM12,28H14V30H12zM14,28H16V30H14zM18,28H20V30H18zM20,28H22V30H20zM22,28H24V30H22zM26,28H28V30H26zM38,28H40V30H38zM40,28H42V30H40zM44,28H46V30H44zM48,28H50V30H48zM50,28H52V30H50zM52,28H54V30H52zM12,30H14V32H12zM14,30H16V32H14zM16,30H18V32H16zM18,30H20V32H18zM32,30H34V32H32zM40,30H42V32H40zM44,30H46V32H44zM46,30H48V32H46zM52,30H54V32H52zM54,30H56V32H54zM18,32H20V34H18zM20,32H22V34H20zM22,32H24V34H22zM30,32H32V34H30zM34,32H36V34H34zM36,32H38V34H36zM38,32H40V34H38zM40,32H42V34H40zM46,32H48V34H46zM48,32H50V34H48zM50,32H52V34H50zM52,32H54V34H52zM54,32H56V34H54zM56,32H58V34H56zM8,34H10V36H8zM16,34H18V36H16zM18,34H20V36H18zM28,34H30V36H28zM32,34H34V36H32zM36,34H38V36H36zM40,34H42V36H40zM42,34H44V36H42zM46,34H48V36H46zM48,34H50V36H48zM54,34H56V36H54zM12,36H14V38H12zM14,36H16V38H14zM16,36H18V38H16zM18,36H20V38H18zM20,36H22V38H20zM24,36H26V38H24zM26,36H28V38H26zM28,36H30V38H28zM30,36H32V38H30zM32,36H34V38H32zM34,36H36V38H34zM36,36H38V38H36zM42,36H44V38H42zM48,36H50V38H48zM50,36H52V38H50zM52,36H54V38H52zM24,38H26V40H24zM28,38H30V40H28zM30,38H32V40H30zM34,38H36V40H34zM50,38H52V40H50zM52,38H54V40H52zM54,38H56V40H54zM8,40H10V42H8zM10,40H12V42H10zM14,40H16V42H14zM18,40H20V42H18zM20,40H22V42H20zM22,40H24V42H22zM28,40H30V42H28zM32,40H34V42H32zM34,40H36V42H34zM40,40H42V42H40zM42,40H44V42H42zM44,40H46V42H44zM46,40H48V42H46zM48,40H50V42H48zM52,40H54V42H52zM24,42H26V44H24zM26,42H28V44H26zM34,42H36V44H34zM36,42H38V44H36zM40,42H42V44H40zM48,42H50V44H48zM8,44H10V46H8zM10,44H12V46H10zM12,44H14V46H12zM14,44H16V46H14zM16,44H18V46H16zM18,44H20V46H18zM20,44H22V46H20zM24,44H26V46H24zM26,44H28V46H26zM38,44H40V46H38zM40,44H42V46H40zM44,44H46V46H44zM48,44H50V46H48zM50,44H52V46H50zM52,44H54V46H52zM8,46H10V48H8zM20,46H22V48H20zM32,46H34V48H32zM36,46H38V48H36zM40,46H42V48H40zM48,46H50V48H48zM50,46H52V48H50zM54,46H56V48H54zM8,48H10V50H8zM12,48H14V50H12zM14,48H16V50H14zM16,48H18V50H16zM20,48H22V50H20zM24,48H26V50H24zM26,48H28V50H26zM28,48H30V50H28zM30,48H32V50H30zM34,48H36V50H34zM36,48H38V50H36zM38,48H40V50H38zM40,48H42V50H40zM42,48H44V50H42zM44,48H46V50H44zM46,48H48V50H46zM48,48H50V50H48zM52,48H54V50H52zM54,48H56V50H54zM56,48H58V50H56zM8,50H10V52H8zM12,50H14V52H12zM14,50H16V52H14zM16,50H18V52H16zM20,50H22V52H20zM26,50H28V52H26zM28,50H30V52H28zM32,50H34V52H32zM40,50H42V52H40zM50,50H52V52H50zM56,50H58V52H56zM8,52H10V54H8zM12,52H14V54H12zM14,52H16V54H14zM16,52H18V54H16zM20,52H22V54H20zM26,52H28V54H26zM28,52H30V54H28zM30,52H32V54H30zM32,52H34V54H32zM34,52H36V54H34zM36,52H38V54H36zM46,52H48V54H46zM48,52H50V54H48zM54,52H56V54H54zM8,54H10V56H8zM20,54H22V56H20zM26,54H28V56H26zM28,54H30V56H28zM30,54H32V56H30zM34,54H36V56H34zM38,54H40V56H38zM42,54H44V56H42zM46,54H48V56H46zM48,54H50V56H48zM54,54H56V56H54zM8,56H10V58H8zM10,56H12V58H10zM12,56H14V58H12zM14,56H16V58H14zM16,56H18V58H16zM18,56H20V58H18zM20,56H22V58H20zM24,56H26V58H24zM26,56H28V58H26zM32,56H34V58H32zM34,56H36V58H34zM38,56H40V58H38zM42,56H44V58H42zM44,56H46V58H44zM48,56H50V58H48zM52,56H54V58H52zM54,56H56V58H54zM56,56H58V58H56z" id="qr-path" fill="#000000" fill-opacity="1" fill-rule="nonzero" stroke="none"/></svg>