<?xml version='1.0' encoding='UTF-8'?>
<svg width="74mm" height="74mm" version="1.1" viewBox="0 0 74 74" xmlns="http://www.w3.org/2000/svg"><path d="M8,8H10V10H8zM10,8H12V10H10zM12,8H14V10H12zM14,8H16V10H14zM16,8H18V10H16zM18,8H20V10H18zM20,8H22V10H20zM26,8H28V10H26zM30,8H32V10H30zM32,8H34V10H32zM34,8H36V10H34zM36,8H38V10H36zM40,8H42V10H40zM46,8H48V10H46zM52,8H54V10H52zM54,8H56V10H54zM56,8H58V10H56zM58,8H60V10H58zM60,8H62V10H60zM62,8H64V10H62zM64,8H66V10H64zM8,10H10V12H8zM20,10H22V12H20zM24,10H26V12H24zM26,10H28V12H26zM28,10H30V12H28zM30,10H32V12H30zM32,10H34V12H32zM36,10H38V12H36zM38,10H40V12H38zM46,10H48V12H46zM48,10H50V12H48zM52,10H54V12H52zM64,10H66V12H64zM8,12H10V14H8zM12,12H14V14H12zM14,12H16V14H14zM16,12H18V14H16zM20,12H22V14H20zM34,12H36V14H34zM36,12H38V14H36zM40,12H42V14H40zM46,12H48V14H46zM48,12H50V14H48zM52,12H54V14H52zM56,12H58V14H56zM58,12H60V14H58zM60,12H62V14H60zM64,12H66V14H64zM8,14H10V16H8zM12,14H14V16H12zM14,14H16V16H14zM16,14H18V16H16zM20,14H22V16H20zM26,14H28V16H26zM30,14H32V16H30zM32,14H34V16H32zM34,14H36V16H34zM36,14H38V16H36zM38,14H40V16H38zM46,14H48V16H46zM48,14H50V16H48zM52,14H54V16H52zM56,14H58V16H56zM58,14H60V16H58zM60,14H62V16H60zM64,14H66V16H64zM8,16H10V18H8zM12,16H14V18H12zM14,16H16V18H14zM16,16H18V18H16zM20,16H22V18H20zM24,16H26V18H24zM30,16H32V18H30zM32,16H34V18H32zM36,16H38V18H36zM38,16H40V18H38zM42,16H44V18H42zM44,16H46V18H44zM46,16H48V18H46zM52,16H54V18H52zM56,16H58V18H56zM58,16H60V18H58zM60,16H62V18H60zM64,16H66V18H64zM8,18H10V20H8zM20,18H22V20H20zM30,18H32V20H30zM34,18H36V20H34zM38,18H40V20H38zM40,18H42V20H40zM46,18H48V20H46zM52,18H54V20H52zM64,18H66V20H64zM8,20H10V22H8zM10,20H12V22H10zM12,20H14V22H12zM14,20H16V22H14zM16,20H18V22H16zM18,20H20V22H18zM20,20H22V22H20zM24,20H26V22H24zM28,20H30V22H28zM32,20H34V22H32zM36,20H38V22H36zM40,20H42V22H40zM44,20H46V22H44zM48,20H50V22H48zM52,20H54V22H52zM54,20H56V22H54zM56,20H58V22H56zM58,20H60V22H58zM60,20H62V22H60zM62,20H64V22H62zM64,20H66V22H64zM26,22H28V24H26zM34,22H36V24H34zM36,22H38V24H36zM44,22H46V24H44zM46,22H48V24H46zM8,24H10V26H8zM12,24H14V26H12zM16,24H18V26H16zM20,24H22V26H20zM30,24H32V26H30zM36,24H38V26H36zM38,24H40V26H38zM40,24H42V26H40zM44,24H46V26H44zM48,24H50V26H48zM56,24H58V26H56zM62,24H64V26H62zM10,26H12V28H10zM12,26H14V28H12zM18,26H20V28H18zM22,26H24V28H22zM24,26H26V28H24zM26,26H28V28H26zM28,26H30V28H28zM32,26H34V28H32zM36,26H38V28H36zM40,26H42V28H40zM44,26H46V28H44zM50,26H52V28H50zM52,26H54V28H52zM58,26H60V28H58zM64,26H66V28H64zM10,28H12V30H10zM12,28H14V30H12zM14,28H16V30H14zM16,28H18V30H16zM20,28H22V30H20zM22,28H24V30H22zM30,28H32V30H30zM34,28H36V30H34zM42,28H44V30H42zM44,28H46V30H44zM46,28H48V30H46zM50,28H52V30H50zM54,28H56V30H54zM56,28H58V30H56zM60,28H62V30H60zM62,28H64V30H62zM64,28H66V30H64zM8,30H10V32H8zM12,30H14V32H12zM14,30H16V32H14zM16,30H18V32H16zM22,30H24V32H22zM24,30H26V32H24zM26,30H28V32H26zM44,30H46V32H44zM46,30H48V32H46zM48,30H50V32H48zM50,30H52V32H50zM52,30H54V32H52zM54,30H56V32H54zM58,30H60V32H58zM62,30H64V32H62zM8,32H10V34H8zM12,32H14V34H12zM14,32H16V34H14zM16,32H18V34H16zM20,32H22V34H20zM22,32H24V34H22zM24,32H26V34H24zM40,32H42V34H40zM44,32H46V34H44zM50,32H52V34H50zM54,32H56V34H54zM56,32H58V34H56zM62,32H64V34H62zM64,32H66V34H64zM8,34H10V36H8zM12,34H14V36H12zM14,34H16V36H14zM24,34H26V36H24zM26,34H28V36H26zM28,34H30V36H28zM30,34H32V36H30zM34,34H36V36H34zM42,34H44V36H42zM46,34H48V36H46zM50,34H52V36H50zM54,34H56V36H54zM56,34H58V36H56zM58,34H60V36H58zM64,34H66V36H64zM8,36H10V38H8zM10,36H12V38H10zM16,36H18V38H16zM18,36H20V38H18zM20,36H22V38H20zM22,36H24V38H22zM24,36H26V38H24zM28,36H30V38H28zM32,36H34V38H32zM36,36H38V38H36zM38,36H40V38H38zM42,36H44V38H42zM44,36H46V38H44zM48,36H50V38H48zM50,36H52V38H50zM52,36H54V38H52zM54,36H56V38H54zM56,36H58V38H56zM60,36H62V38H60zM62,36H64V38H62zM64,36H66V38H64zM18,38H20V40H18zM32,38H34V40H32zM34,38H36V40H34zM36,38H38V40H36zM44,38H46V40H44zM46,38H48V40H46zM52,38H54V40H52zM54,38H56V40H54zM58,38H60V40H58zM60,38H62V40H60zM62,38H64V40H62zM14,40H16V42H14zM16,40H18V42H16zM18,40H20V42H18zM20,40H22V42H20zM24,40H26V42H24zM28,40H30V42H28zM36,40H38V42H36zM40,40H42V42H40zM44,40H46V42H44zM48,40H50V42H48zM50,40H52V42H50zM54,40H56V42H54zM62,40H64V42H62zM64,40H66V42H64zM10,42H12V44H10zM24,42H26V44H24zM26,42H28V44H26zM32,42H34V44H32zM36,42H38V44H36zM38,42H40V44H38zM40,42H42V44H40zM42,42H44V44H42zM44,42H46V44H44zM46,42H48V44H46zM54,42H56V44H54zM56,42H58V44H56zM60,42H62V44H60zM64,42H66V44H64zM8,44H10V46H8zM12,44H14V46H12zM20,44H22V46H20zM24,44H26V46H24zM34,44H36V46H34zM42,44H44V46H42zM44,44H46V46H44zM48,44H50V46H48zM54,44H56V46H54zM58,44H60V46H58zM62,44H64V46H62zM64,44H66V46H64zM10,46H12V48H10zM16,46H18V48H16zM18,46H20V48H18zM22,46H24V48H22zM28,46H30V48H28zM30,46H32V48H30zM32,46H34V48H32zM42,46H44V48H42zM44,46H46V48H44zM46,46H48V48H46zM50,46H52V48H50zM52,46H54V48H52zM56,46H58V48H56zM60,46H62V48H60zM62,46H64V48H62zM8,48H10V50H8zM12,48H14V50H12zM14,48H16V50H14zM20,48H22V50H20zM28,48H30V50H28zM30,48H32V50H30zM32,48H34V50H32zM42,48H44V50H42zM44,48H46V50H44zM46,48H48V50H46zM48,48H50V50H48zM50,48H52V50H50zM52,48H54V50H52zM54,48H56V50H54zM56,48H58V50H56zM24,50H26V52H24zM26,50H28V52H26zM30,50H32V52H30zM32,50H34V52H32zM34,50H36V52H34zM40,50H42V52H40zM46,50H48V52H46zM48,50H50V52H48zM56,50H58V52H56zM62,50H64V52H62zM64,50H66V52H64zM8,52H10V54H8zM10,52H12V54H10zM12,52H14V54H12zM14,52H16V54H14zM16,52H18V54H16zM18,52H20V54H18zM20,52H22V54H20zM28,52H30V54H28zM30,52H32V54H30zM32,52H34V54H32zM36,52H38V54H36zM42,52H44V54H42zM44,52H46V54H44zM46,52H48V54H46zM48,52H50V54H48zM52,52H54V54H52zM56,52H58V54H56zM58,52H60V54H58zM62,52H64V54H62zM64,52H66V54H64zM8,54H10V56H8zM20,54H22V56H20zM28,54H30V56H28zM30,54H32V56H30zM34,54H36V56H34zM36,54H38V56H36zM38,54H40V56H38zM44,54H46V56H44zM48,54H50V56H48zM56,54H58V56H56zM60,54H62V56H60zM62,54H64V56H62zM8,56H10V58H8zM12,56H14V58H12zM14,56H16V58H14zM16,56H18V58H16zM20,56H22V58H20zM24,56H26V58H24zM26,56H28V58H26zM28,56H30V58H28zM30,56H32V58H30zM32,56H34V58H32zM36,56H38V58H36zM38,56H40V58H38zM44,56H46V58H44zM48,56H50V58H48zM50,56H52V58H50zM52,56H54V58H52zM54,56H56V58H54zM56,56H58V58H56zM58,56H60V58H58zM62,56H64V58H62zM64,56H66V58H64zM8,58H10V60H8zM12,58H14V60H12zM14,58H16V60H14zM16,58H18V60H16zM20,58H22V60H20zM28,58H30V60H28zM30,58H32V60H30zM34,58H36V60H34zM36,58H38V60H36zM40,58H42V60H40zM44,58H46V60H44zM50,58H52V60H50zM58,58H60V60H58zM62,58H64V60H62zM8,60H10V62H8zM12,60H14V62H12zM14,60H16V62H14zM16,60H18V62H16zM20,60H22V62H20zM24,60H26V62H24zM26,60H28V62H26zM28,60H30V62H28zM30,60H32V62H30zM34,60H36V62H34zM42,60H44V62H42zM44,60H46V62H44zM48,60H50V62H48zM52,60H54V62H52zM54,60H56V62H54zM56,60H58V62H56zM64,60H66V62H64zM8,62H10V64H8zM20,62H22V64H20zM30,62H32V64H30zM36,62H38V64H36zM44,62H46V64H44zM46,62H48V64H46zM48,62H50V64H48zM52,62H54V64H52zM54,62H56V64H54zM56,62H58V64H56zM58,62H60V64H58zM62,62H64V64H62zM8,64H10V66H8zM10,64H12V66H10zM12,64H14V66H12zM14,64H16V66H14zM16,64H18V66H16zM18,64H20V66H18zM20,64H22V66H20zM24,64H26V66H24zM26,64H28V66H26zM28,64H30V66H28zM30,64H32V66H30zM32,64H34V66H32zM36,64H38V66H36zM38,64H40V66H38zM44,64H46V66H44zM52,64H54V66H52zM54,64H56V66H54zM56,64H58V66H56zM60,64H62V66H60zM62,64H64V66H62zM64,64H66V66H64z" id="qr-path" fill="#000000" fill-opacity="1" fill-rule="nonzero" stroke="none"/></svg>